<svg xmlns="http://www.w3.org/2000/svg" viewBox="0 0 128 128">
  <defs>
    <linearGradient id="tabGrad" x1="0%" y1="0%" x2="100%" y2="100%">
      <stop offset="0%" style="stop-color:#818cf8"/>
      <stop offset="100%" style="stop-color:#6366f1"/>
    </linearGradient>
  </defs>
  
  <!-- Cat ears -->
  <path d="M24 48 L36 20 L48 44" fill="url(#tabGrad)"/>
  <path d="M80 44 L92 20 L104 48" fill="url(#tabGrad)"/>
  
  <!-- Browser tab shape -->
  <path d="M20 48 L20 100 Q20 108 28 108 L100 108 Q108 108 108 100 L108 48 Q108 40 100 40 L28 40 Q20 40 20 48" fill="url(#tabGrad)"/>
  
  <!-- Tab top curve (browser tab style) -->
  <path d="M28 40 Q20 40 20 48" fill="url(#tabGrad)"/>
  <path d="M100 40 Q108 40 108 48" fill="url(#tabGrad)"/>
  
  <!-- Inner ear detail -->
  <path d="M32 44 L36 28 L40 42" fill="#c4b5fd"/>
  <path d="M88 42 L92 28 L96 44" fill="#c4b5fd"/>
  
  <!-- Whiskers - left -->
  <line x1="8" y1="68" x2="28" y2="72" stroke="#c4b5fd" stroke-width="3" stroke-linecap="round"/>
  <line x1="6" y1="80" x2="26" y2="80" stroke="#c4b5fd" stroke-width="3" stroke-linecap="round"/>
  <line x1="8" y1="92" x2="28" y2="88" stroke="#c4b5fd" stroke-width="3" stroke-linecap="round"/>
  
  <!-- Whiskers - right -->
  <line x1="100" y1="72" x2="120" y2="68" stroke="#c4b5fd" stroke-width="3" stroke-linecap="round"/>
  <line x1="102" y1="80" x2="122" y2="80" stroke="#c4b5fd" stroke-width="3" stroke-linecap="round"/>
  <line x1="100" y1="88" x2="120" y2="92" stroke="#c4b5fd" stroke-width="3" stroke-linecap="round"/>
</svg>
